<mxfile host="app.diagrams.net" modified="2022-11-29T08:24:58.904Z" agent="5.0 (Windows NT 10.0; Win64; x64) AppleWebKit/537.36 (KHTML, like Gecko) Chrome/103.0.0.0 Safari/537.36" etag="3ix0LtFSXquhp2xTiiXK" version="20.3.0" type="github">
  <diagram id="cM4SF6-KOGi07tknLlma" name="第 1 页">
    <mxGraphModel dx="1662" dy="762" grid="1" gridSize="10" guides="1" tooltips="1" connect="1" arrows="1" fold="1" page="1" pageScale="1" pageWidth="827" pageHeight="1169" math="0" shadow="0">
      <root>
        <mxCell id="0" />
        <mxCell id="1" parent="0" />
        <mxCell id="k0ae6wU8P3SKjJ2Hq0vM-23" style="edgeStyle=orthogonalEdgeStyle;rounded=0;orthogonalLoop=1;jettySize=auto;html=1;entryX=0.5;entryY=1;entryDx=0;entryDy=0;" edge="1" parent="1" source="k0ae6wU8P3SKjJ2Hq0vM-1" target="k0ae6wU8P3SKjJ2Hq0vM-19">
          <mxGeometry relative="1" as="geometry" />
        </mxCell>
        <mxCell id="k0ae6wU8P3SKjJ2Hq0vM-1" value="安装打开表" style="shape=table;startSize=30;container=1;collapsible=1;childLayout=tableLayout;fixedRows=1;rowLines=0;fontStyle=1;align=center;resizeLast=1;" vertex="1" parent="1">
          <mxGeometry x="488" y="780" width="180" height="80" as="geometry" />
        </mxCell>
        <mxCell id="k0ae6wU8P3SKjJ2Hq0vM-2" value="" style="shape=tableRow;horizontal=0;startSize=0;swimlaneHead=0;swimlaneBody=0;fillColor=none;collapsible=0;dropTarget=0;points=[[0,0.5],[1,0.5]];portConstraint=eastwest;top=0;left=0;right=0;bottom=1;" vertex="1" parent="k0ae6wU8P3SKjJ2Hq0vM-1">
          <mxGeometry y="30" width="180" height="30" as="geometry" />
        </mxCell>
        <mxCell id="k0ae6wU8P3SKjJ2Hq0vM-3" value="PK" style="shape=partialRectangle;connectable=0;fillColor=none;top=0;left=0;bottom=0;right=0;fontStyle=1;overflow=hidden;" vertex="1" parent="k0ae6wU8P3SKjJ2Hq0vM-2">
          <mxGeometry width="30" height="30" as="geometry">
            <mxRectangle width="30" height="30" as="alternateBounds" />
          </mxGeometry>
        </mxCell>
        <mxCell id="k0ae6wU8P3SKjJ2Hq0vM-4" value="event_log.install_open" style="shape=partialRectangle;connectable=0;fillColor=none;top=0;left=0;bottom=0;right=0;align=left;spacingLeft=6;fontStyle=5;overflow=hidden;" vertex="1" parent="k0ae6wU8P3SKjJ2Hq0vM-2">
          <mxGeometry x="30" width="150" height="30" as="geometry">
            <mxRectangle width="150" height="30" as="alternateBounds" />
          </mxGeometry>
        </mxCell>
        <mxCell id="k0ae6wU8P3SKjJ2Hq0vM-84" style="edgeStyle=orthogonalEdgeStyle;rounded=0;orthogonalLoop=1;jettySize=auto;html=1;entryX=0.5;entryY=1;entryDx=0;entryDy=0;" edge="1" parent="1" source="k0ae6wU8P3SKjJ2Hq0vM-15" target="k0ae6wU8P3SKjJ2Hq0vM-24">
          <mxGeometry relative="1" as="geometry" />
        </mxCell>
        <mxCell id="k0ae6wU8P3SKjJ2Hq0vM-15" value=" 唤醒表" style="shape=table;startSize=30;container=1;collapsible=1;childLayout=tableLayout;fixedRows=1;rowLines=0;fontStyle=1;align=center;resizeLast=1;" vertex="1" parent="1">
          <mxGeometry x="720" y="780" width="190" height="80" as="geometry" />
        </mxCell>
        <mxCell id="k0ae6wU8P3SKjJ2Hq0vM-16" value="" style="shape=tableRow;horizontal=0;startSize=0;swimlaneHead=0;swimlaneBody=0;fillColor=none;collapsible=0;dropTarget=0;points=[[0,0.5],[1,0.5]];portConstraint=eastwest;top=0;left=0;right=0;bottom=1;" vertex="1" parent="k0ae6wU8P3SKjJ2Hq0vM-15">
          <mxGeometry y="30" width="190" height="30" as="geometry" />
        </mxCell>
        <mxCell id="k0ae6wU8P3SKjJ2Hq0vM-17" value="PK" style="shape=partialRectangle;connectable=0;fillColor=none;top=0;left=0;bottom=0;right=0;fontStyle=1;overflow=hidden;" vertex="1" parent="k0ae6wU8P3SKjJ2Hq0vM-16">
          <mxGeometry width="30" height="30" as="geometry">
            <mxRectangle width="30" height="30" as="alternateBounds" />
          </mxGeometry>
        </mxCell>
        <mxCell id="k0ae6wU8P3SKjJ2Hq0vM-18" value="event_log.wake_up" style="shape=partialRectangle;connectable=0;fillColor=none;top=0;left=0;bottom=0;right=0;align=left;spacingLeft=6;fontStyle=5;overflow=hidden;" vertex="1" parent="k0ae6wU8P3SKjJ2Hq0vM-16">
          <mxGeometry x="30" width="160" height="30" as="geometry">
            <mxRectangle width="160" height="30" as="alternateBounds" />
          </mxGeometry>
        </mxCell>
        <mxCell id="k0ae6wU8P3SKjJ2Hq0vM-122" style="edgeStyle=orthogonalEdgeStyle;rounded=0;orthogonalLoop=1;jettySize=auto;html=1;exitX=1;exitY=0.5;exitDx=0;exitDy=0;" edge="1" parent="k0ae6wU8P3SKjJ2Hq0vM-15" source="k0ae6wU8P3SKjJ2Hq0vM-16" target="k0ae6wU8P3SKjJ2Hq0vM-16">
          <mxGeometry relative="1" as="geometry" />
        </mxCell>
        <mxCell id="k0ae6wU8P3SKjJ2Hq0vM-140" style="edgeStyle=orthogonalEdgeStyle;rounded=0;orthogonalLoop=1;jettySize=auto;html=1;exitX=0.25;exitY=0;exitDx=0;exitDy=0;" edge="1" parent="1" source="k0ae6wU8P3SKjJ2Hq0vM-19">
          <mxGeometry relative="1" as="geometry">
            <mxPoint x="533" y="410" as="targetPoint" />
          </mxGeometry>
        </mxCell>
        <mxCell id="k0ae6wU8P3SKjJ2Hq0vM-145" style="edgeStyle=orthogonalEdgeStyle;rounded=0;orthogonalLoop=1;jettySize=auto;html=1;exitX=0.75;exitY=0;exitDx=0;exitDy=0;entryX=0.25;entryY=1;entryDx=0;entryDy=0;" edge="1" parent="1" source="k0ae6wU8P3SKjJ2Hq0vM-19" target="k0ae6wU8P3SKjJ2Hq0vM-34">
          <mxGeometry relative="1" as="geometry" />
        </mxCell>
        <mxCell id="k0ae6wU8P3SKjJ2Hq0vM-19" value="安装打开宽表" style="shape=table;startSize=30;container=1;collapsible=1;childLayout=tableLayout;fixedRows=1;rowLines=0;fontStyle=1;align=center;resizeLast=1;" vertex="1" parent="1">
          <mxGeometry x="488" y="640" width="180" height="80" as="geometry" />
        </mxCell>
        <mxCell id="k0ae6wU8P3SKjJ2Hq0vM-20" value="" style="shape=tableRow;horizontal=0;startSize=0;swimlaneHead=0;swimlaneBody=0;fillColor=none;collapsible=0;dropTarget=0;points=[[0,0.5],[1,0.5]];portConstraint=eastwest;top=0;left=0;right=0;bottom=1;" vertex="1" parent="k0ae6wU8P3SKjJ2Hq0vM-19">
          <mxGeometry y="30" width="180" height="30" as="geometry" />
        </mxCell>
        <mxCell id="k0ae6wU8P3SKjJ2Hq0vM-21" value="PK" style="shape=partialRectangle;connectable=0;fillColor=none;top=0;left=0;bottom=0;right=0;fontStyle=1;overflow=hidden;" vertex="1" parent="k0ae6wU8P3SKjJ2Hq0vM-20">
          <mxGeometry width="30" height="30" as="geometry">
            <mxRectangle width="30" height="30" as="alternateBounds" />
          </mxGeometry>
        </mxCell>
        <mxCell id="k0ae6wU8P3SKjJ2Hq0vM-22" value="dwd.dwd_install_open" style="shape=partialRectangle;connectable=0;fillColor=none;top=0;left=0;bottom=0;right=0;align=left;spacingLeft=6;fontStyle=5;overflow=hidden;" vertex="1" parent="k0ae6wU8P3SKjJ2Hq0vM-20">
          <mxGeometry x="30" width="150" height="30" as="geometry">
            <mxRectangle width="150" height="30" as="alternateBounds" />
          </mxGeometry>
        </mxCell>
        <mxCell id="k0ae6wU8P3SKjJ2Hq0vM-144" style="edgeStyle=orthogonalEdgeStyle;rounded=0;orthogonalLoop=1;jettySize=auto;html=1;exitX=0.25;exitY=0;exitDx=0;exitDy=0;entryX=0.75;entryY=1;entryDx=0;entryDy=0;" edge="1" parent="1" source="k0ae6wU8P3SKjJ2Hq0vM-24" target="k0ae6wU8P3SKjJ2Hq0vM-34">
          <mxGeometry relative="1" as="geometry" />
        </mxCell>
        <mxCell id="k0ae6wU8P3SKjJ2Hq0vM-150" style="edgeStyle=orthogonalEdgeStyle;rounded=0;orthogonalLoop=1;jettySize=auto;html=1;exitX=0.75;exitY=0;exitDx=0;exitDy=0;" edge="1" parent="1" source="k0ae6wU8P3SKjJ2Hq0vM-24">
          <mxGeometry relative="1" as="geometry">
            <mxPoint x="863" y="410" as="targetPoint" />
          </mxGeometry>
        </mxCell>
        <mxCell id="k0ae6wU8P3SKjJ2Hq0vM-24" value="唤醒宽表" style="shape=table;startSize=30;container=1;collapsible=1;childLayout=tableLayout;fixedRows=1;rowLines=0;fontStyle=1;align=center;resizeLast=1;" vertex="1" parent="1">
          <mxGeometry x="720" y="640" width="190" height="80" as="geometry" />
        </mxCell>
        <mxCell id="k0ae6wU8P3SKjJ2Hq0vM-25" value="" style="shape=tableRow;horizontal=0;startSize=0;swimlaneHead=0;swimlaneBody=0;fillColor=none;collapsible=0;dropTarget=0;points=[[0,0.5],[1,0.5]];portConstraint=eastwest;top=0;left=0;right=0;bottom=1;" vertex="1" parent="k0ae6wU8P3SKjJ2Hq0vM-24">
          <mxGeometry y="30" width="190" height="30" as="geometry" />
        </mxCell>
        <mxCell id="k0ae6wU8P3SKjJ2Hq0vM-26" value="PK" style="shape=partialRectangle;connectable=0;fillColor=none;top=0;left=0;bottom=0;right=0;fontStyle=1;overflow=hidden;" vertex="1" parent="k0ae6wU8P3SKjJ2Hq0vM-25">
          <mxGeometry width="30" height="30" as="geometry">
            <mxRectangle width="30" height="30" as="alternateBounds" />
          </mxGeometry>
        </mxCell>
        <mxCell id="k0ae6wU8P3SKjJ2Hq0vM-27" value="dwd.dwd_wake_up" style="shape=partialRectangle;connectable=0;fillColor=none;top=0;left=0;bottom=0;right=0;align=left;spacingLeft=6;fontStyle=5;overflow=hidden;" vertex="1" parent="k0ae6wU8P3SKjJ2Hq0vM-25">
          <mxGeometry x="30" width="160" height="30" as="geometry">
            <mxRectangle width="160" height="30" as="alternateBounds" />
          </mxGeometry>
        </mxCell>
        <mxCell id="k0ae6wU8P3SKjJ2Hq0vM-138" style="edgeStyle=orthogonalEdgeStyle;rounded=0;orthogonalLoop=1;jettySize=auto;html=1;" edge="1" parent="1" source="k0ae6wU8P3SKjJ2Hq0vM-34">
          <mxGeometry relative="1" as="geometry">
            <mxPoint x="695" y="410" as="targetPoint" />
          </mxGeometry>
        </mxCell>
        <mxCell id="k0ae6wU8P3SKjJ2Hq0vM-34" value="设备用户表" style="shape=table;startSize=30;container=1;collapsible=1;childLayout=tableLayout;fixedRows=1;rowLines=0;fontStyle=1;align=center;resizeLast=1;" vertex="1" parent="1">
          <mxGeometry x="570" y="505" width="250" height="80" as="geometry" />
        </mxCell>
        <mxCell id="k0ae6wU8P3SKjJ2Hq0vM-35" value="" style="shape=tableRow;horizontal=0;startSize=0;swimlaneHead=0;swimlaneBody=0;fillColor=none;collapsible=0;dropTarget=0;points=[[0,0.5],[1,0.5]];portConstraint=eastwest;top=0;left=0;right=0;bottom=1;" vertex="1" parent="k0ae6wU8P3SKjJ2Hq0vM-34">
          <mxGeometry y="30" width="250" height="30" as="geometry" />
        </mxCell>
        <mxCell id="k0ae6wU8P3SKjJ2Hq0vM-36" value="PK" style="shape=partialRectangle;connectable=0;fillColor=none;top=0;left=0;bottom=0;right=0;fontStyle=1;overflow=hidden;" vertex="1" parent="k0ae6wU8P3SKjJ2Hq0vM-35">
          <mxGeometry width="30" height="30" as="geometry">
            <mxRectangle width="30" height="30" as="alternateBounds" />
          </mxGeometry>
        </mxCell>
        <mxCell id="k0ae6wU8P3SKjJ2Hq0vM-37" value="dwd.dwd_drainage_device_uid_cid" style="shape=partialRectangle;connectable=0;fillColor=none;top=0;left=0;bottom=0;right=0;align=left;spacingLeft=6;fontStyle=5;overflow=hidden;" vertex="1" parent="k0ae6wU8P3SKjJ2Hq0vM-35">
          <mxGeometry x="30" width="220" height="30" as="geometry">
            <mxRectangle width="220" height="30" as="alternateBounds" />
          </mxGeometry>
        </mxCell>
        <mxCell id="k0ae6wU8P3SKjJ2Hq0vM-42" value="引流效果分析聚合表" style="shape=table;startSize=30;container=1;collapsible=1;childLayout=tableLayout;fixedRows=1;rowLines=0;fontStyle=1;align=center;resizeLast=1;" vertex="1" parent="1">
          <mxGeometry x="470" y="330" width="450" height="80" as="geometry" />
        </mxCell>
        <mxCell id="k0ae6wU8P3SKjJ2Hq0vM-43" value="" style="shape=tableRow;horizontal=0;startSize=0;swimlaneHead=0;swimlaneBody=0;fillColor=none;collapsible=0;dropTarget=0;points=[[0,0.5],[1,0.5]];portConstraint=eastwest;top=0;left=0;right=0;bottom=1;" vertex="1" parent="k0ae6wU8P3SKjJ2Hq0vM-42">
          <mxGeometry y="30" width="450" height="30" as="geometry" />
        </mxCell>
        <mxCell id="k0ae6wU8P3SKjJ2Hq0vM-44" value="PK" style="shape=partialRectangle;connectable=0;fillColor=none;top=0;left=0;bottom=0;right=0;fontStyle=1;overflow=hidden;" vertex="1" parent="k0ae6wU8P3SKjJ2Hq0vM-43">
          <mxGeometry width="30" height="30" as="geometry">
            <mxRectangle width="30" height="30" as="alternateBounds" />
          </mxGeometry>
        </mxCell>
        <mxCell id="k0ae6wU8P3SKjJ2Hq0vM-45" value="dwa.dwa_flow_drainage_1d_detail_w" style="shape=partialRectangle;connectable=0;fillColor=none;top=0;left=0;bottom=0;right=0;align=left;spacingLeft=6;fontStyle=5;overflow=hidden;" vertex="1" parent="k0ae6wU8P3SKjJ2Hq0vM-43">
          <mxGeometry x="30" width="420" height="30" as="geometry">
            <mxRectangle width="420" height="30" as="alternateBounds" />
          </mxGeometry>
        </mxCell>
        <mxCell id="k0ae6wU8P3SKjJ2Hq0vM-137" style="edgeStyle=orthogonalEdgeStyle;rounded=0;orthogonalLoop=1;jettySize=auto;html=1;exitX=0.25;exitY=0;exitDx=0;exitDy=0;entryX=1;entryY=0.5;entryDx=0;entryDy=0;" edge="1" parent="1" source="k0ae6wU8P3SKjJ2Hq0vM-46" target="k0ae6wU8P3SKjJ2Hq0vM-43">
          <mxGeometry relative="1" as="geometry" />
        </mxCell>
        <mxCell id="k0ae6wU8P3SKjJ2Hq0vM-46" value="订单宽表" style="shape=table;startSize=30;container=1;collapsible=1;childLayout=tableLayout;fixedRows=1;rowLines=0;fontStyle=1;align=center;resizeLast=1;" vertex="1" parent="1">
          <mxGeometry x="1160" y="505" width="180" height="80" as="geometry" />
        </mxCell>
        <mxCell id="k0ae6wU8P3SKjJ2Hq0vM-47" value="" style="shape=tableRow;horizontal=0;startSize=0;swimlaneHead=0;swimlaneBody=0;fillColor=none;collapsible=0;dropTarget=0;points=[[0,0.5],[1,0.5]];portConstraint=eastwest;top=0;left=0;right=0;bottom=1;" vertex="1" parent="k0ae6wU8P3SKjJ2Hq0vM-46">
          <mxGeometry y="30" width="180" height="30" as="geometry" />
        </mxCell>
        <mxCell id="k0ae6wU8P3SKjJ2Hq0vM-48" value="PK" style="shape=partialRectangle;connectable=0;fillColor=none;top=0;left=0;bottom=0;right=0;fontStyle=1;overflow=hidden;" vertex="1" parent="k0ae6wU8P3SKjJ2Hq0vM-47">
          <mxGeometry width="30" height="30" as="geometry">
            <mxRectangle width="30" height="30" as="alternateBounds" />
          </mxGeometry>
        </mxCell>
        <mxCell id="k0ae6wU8P3SKjJ2Hq0vM-49" value="dwt.dwt_orders" style="shape=partialRectangle;connectable=0;fillColor=none;top=0;left=0;bottom=0;right=0;align=left;spacingLeft=6;fontStyle=5;overflow=hidden;" vertex="1" parent="k0ae6wU8P3SKjJ2Hq0vM-47">
          <mxGeometry x="30" width="150" height="30" as="geometry">
            <mxRectangle width="150" height="30" as="alternateBounds" />
          </mxGeometry>
        </mxCell>
        <mxCell id="k0ae6wU8P3SKjJ2Hq0vM-139" style="edgeStyle=orthogonalEdgeStyle;rounded=0;orthogonalLoop=1;jettySize=auto;html=1;exitX=0.75;exitY=0;exitDx=0;exitDy=0;" edge="1" parent="1" source="k0ae6wU8P3SKjJ2Hq0vM-76">
          <mxGeometry relative="1" as="geometry">
            <mxPoint x="500" y="410" as="targetPoint" />
          </mxGeometry>
        </mxCell>
        <mxCell id="k0ae6wU8P3SKjJ2Hq0vM-76" value="2.0 用户行为表" style="shape=table;startSize=30;container=1;collapsible=1;childLayout=tableLayout;fixedRows=1;rowLines=0;fontStyle=1;align=center;resizeLast=1;" vertex="1" parent="1">
          <mxGeometry x="200" y="505" width="280" height="80" as="geometry" />
        </mxCell>
        <mxCell id="k0ae6wU8P3SKjJ2Hq0vM-77" value="" style="shape=tableRow;horizontal=0;startSize=0;swimlaneHead=0;swimlaneBody=0;fillColor=none;collapsible=0;dropTarget=0;points=[[0,0.5],[1,0.5]];portConstraint=eastwest;top=0;left=0;right=0;bottom=1;" vertex="1" parent="k0ae6wU8P3SKjJ2Hq0vM-76">
          <mxGeometry y="30" width="280" height="30" as="geometry" />
        </mxCell>
        <mxCell id="k0ae6wU8P3SKjJ2Hq0vM-78" value="PK" style="shape=partialRectangle;connectable=0;fillColor=none;top=0;left=0;bottom=0;right=0;fontStyle=1;overflow=hidden;" vertex="1" parent="k0ae6wU8P3SKjJ2Hq0vM-77">
          <mxGeometry width="30" height="30" as="geometry">
            <mxRectangle width="30" height="30" as="alternateBounds" />
          </mxGeometry>
        </mxCell>
        <mxCell id="k0ae6wU8P3SKjJ2Hq0vM-79" value="datacube.dwa_user_behavior_event_w" style="shape=partialRectangle;connectable=0;fillColor=none;top=0;left=0;bottom=0;right=0;align=left;spacingLeft=6;fontStyle=5;overflow=hidden;" vertex="1" parent="k0ae6wU8P3SKjJ2Hq0vM-77">
          <mxGeometry x="30" width="250" height="30" as="geometry">
            <mxRectangle width="250" height="30" as="alternateBounds" />
          </mxGeometry>
        </mxCell>
        <mxCell id="k0ae6wU8P3SKjJ2Hq0vM-153" style="edgeStyle=orthogonalEdgeStyle;rounded=0;orthogonalLoop=1;jettySize=auto;html=1;exitX=0.25;exitY=0;exitDx=0;exitDy=0;" edge="1" parent="1" source="k0ae6wU8P3SKjJ2Hq0vM-97">
          <mxGeometry relative="1" as="geometry">
            <mxPoint x="900" y="410" as="targetPoint" />
          </mxGeometry>
        </mxCell>
        <mxCell id="k0ae6wU8P3SKjJ2Hq0vM-97" value="3.0 曝光点击浏览表" style="shape=table;startSize=30;container=1;collapsible=1;childLayout=tableLayout;fixedRows=1;rowLines=0;fontStyle=1;align=center;resizeLast=1;" vertex="1" parent="1">
          <mxGeometry x="920" y="505" width="210" height="80" as="geometry" />
        </mxCell>
        <mxCell id="k0ae6wU8P3SKjJ2Hq0vM-98" value="" style="shape=tableRow;horizontal=0;startSize=0;swimlaneHead=0;swimlaneBody=0;fillColor=none;collapsible=0;dropTarget=0;points=[[0,0.5],[1,0.5]];portConstraint=eastwest;top=0;left=0;right=0;bottom=1;" vertex="1" parent="k0ae6wU8P3SKjJ2Hq0vM-97">
          <mxGeometry y="30" width="210" height="30" as="geometry" />
        </mxCell>
        <mxCell id="k0ae6wU8P3SKjJ2Hq0vM-99" value="PK" style="shape=partialRectangle;connectable=0;fillColor=none;top=0;left=0;bottom=0;right=0;fontStyle=1;overflow=hidden;" vertex="1" parent="k0ae6wU8P3SKjJ2Hq0vM-98">
          <mxGeometry width="30" height="30" as="geometry">
            <mxRectangle width="30" height="30" as="alternateBounds" />
          </mxGeometry>
        </mxCell>
        <mxCell id="k0ae6wU8P3SKjJ2Hq0vM-100" value="dwd.dwd_user_bhv_event" style="shape=partialRectangle;connectable=0;fillColor=none;top=0;left=0;bottom=0;right=0;align=left;spacingLeft=6;fontStyle=5;overflow=hidden;" vertex="1" parent="k0ae6wU8P3SKjJ2Hq0vM-98">
          <mxGeometry x="30" width="180" height="30" as="geometry">
            <mxRectangle width="180" height="30" as="alternateBounds" />
          </mxGeometry>
        </mxCell>
        <mxCell id="k0ae6wU8P3SKjJ2Hq0vM-129" style="edgeStyle=orthogonalEdgeStyle;rounded=0;orthogonalLoop=1;jettySize=auto;html=1;entryX=1;entryY=0.5;entryDx=0;entryDy=0;" edge="1" parent="1" source="k0ae6wU8P3SKjJ2Hq0vM-98" target="k0ae6wU8P3SKjJ2Hq0vM-35">
          <mxGeometry relative="1" as="geometry" />
        </mxCell>
      </root>
    </mxGraphModel>
  </diagram>
</mxfile>
